<?xml version="1.0" encoding="UTF-8" standalone="no"?>
<!-- Created with Inkscape (http://www.inkscape.org/) -->

<svg
   xmlns:dc="http://purl.org/dc/elements/1.1/"
   xmlns:cc="http://creativecommons.org/ns#"
   xmlns:rdf="http://www.w3.org/1999/02/22-rdf-syntax-ns#"
   xmlns:svg="http://www.w3.org/2000/svg"
   xmlns="http://www.w3.org/2000/svg"
   xmlns:sodipodi="http://sodipodi.sourceforge.net/DTD/sodipodi-0.dtd"
   xmlns:inkscape="http://www.inkscape.org/namespaces/inkscape"
   version="1.1"
   width="32.275391"
   height="30.46875"
   id="svg3033"
   sodipodi:docname="asterisk.svg"
   inkscape:version="0.92.3 (2405546, 2018-03-11)">
  <sodipodi:namedview
     pagecolor="#ffffff"
     bordercolor="#666666"
     borderopacity="1"
     objecttolerance="10"
     gridtolerance="10"
     guidetolerance="10"
     inkscape:pageopacity="0"
     inkscape:pageshadow="2"
     inkscape:window-width="1920"
     inkscape:window-height="995"
     id="namedview3784"
     showgrid="false"
     inkscape:zoom="26.486154"
     inkscape:cx="11.456004"
     inkscape:cy="15.234375"
     inkscape:window-x="0"
     inkscape:window-y="0"
     inkscape:window-maximized="1"
     inkscape:current-layer="svg3033" />
  <metadata
     id="metadata3041">
    <rdf:RDF>
      <cc:Work
         rdf:about="">
        <dc:format>image/svg+xml</dc:format>
        <dc:type
           rdf:resource="http://purl.org/dc/dcmitype/StillImage" />
        <dc:title />
      </cc:Work>
    </rdf:RDF>
  </metadata>
  <defs
     id="defs3039" />
  <g
     id="g3065">
    <g
       id="text3035"
       style="font-size:100px;font-family:arial">
      <path
         d="M 0,14.355469 2.2460938,7.421875 C 7.4218645,9.2448552 11.181626,10.82363 13.525391,12.158203 12.906885,6.2663426 12.581365,2.2136123 12.548828,0 l 7.080078,0 c -0.09768,3.2227258 -0.472027,7.2591801 -1.123047,12.109375 3.35284,-1.692646 7.193982,-3.2551444 11.523438,-4.6875 l 2.246094,6.933594 c -4.134146,1.367244 -8.186877,2.278702 -12.158204,2.734375 1.985652,1.725314 4.785129,4.801483 8.398438,9.228515 L 22.65625,30.46875 C 20.768205,27.89718 18.53839,24.397835 15.966797,19.970703 13.557926,24.560595 11.442043,28.059941 9.6191406,30.46875 L 3.8574219,26.318359 C 7.6334528,21.663463 10.335273,18.587294 11.962891,17.089844 7.763661,16.276098 3.7760348,15.364641 0,14.355469"
         id="path3063"
         style="font-size:100px;font-family:arial" />
    </g>
  </g>
  <path
     style="stroke-width:0.03775558;fill:#ffffff"
     d="M 6.778088,28.401167 C 5.241436,27.290935 3.9605513,26.368892 3.9316773,26.352183 c -0.039345,-0.02277 0.1398576,-0.265737 0.71529,-0.969802 2.8444685,-3.480327 4.9956797,-5.947445 6.5769607,-7.542795 0.410186,-0.413836 0.741491,-0.756484 0.736234,-0.76144 -0.0053,-0.005 -0.493775,-0.105528 -1.085594,-0.223493 C 7.8853239,16.258823 5.2955213,15.677484 2.4550745,14.964708 0.59454834,14.497831 0.08444867,14.363904 0.05514898,14.334604 0.04315608,14.322611 0.53151061,12.772472 1.1403813,10.88985 2.2428951,7.4808891 2.2478045,7.4669773 2.3418078,7.4854137 c 0.1193581,0.023409 1.5873135,0.552685 2.9638127,1.068612 3.279478,1.2291845 6.0674755,2.4417173 7.7655525,3.3773293 0.221769,0.122191 0.421725,0.222165 0.444348,0.222165 0.02319,0 0.03273,-0.03705 0.02187,-0.08495 C 13.494402,11.879031 13.035774,7.1015464 12.876831,5.1876162 12.713916,3.2258708 12.573809,0.98822151 12.573647,0.34546352 l -7.8e-5,-0.3114835 h 3.511269 3.511268 l -3.8e-5,0.29260571 c -3.7e-5,0.35141713 -0.09085,1.98839887 -0.171196,3.08651837 -0.159591,2.1811645 -0.462389,5.0630122 -0.81634,7.7694519 -0.06459,0.493865 -0.109449,0.905921 -0.09969,0.915679 0.0098,0.0098 0.432534,-0.18392 0.939501,-0.430397 2.870511,-1.395584 6.03543,-2.6763415 9.746818,-3.9442764 l 0.820877,-0.280439 0.357141,1.099826 c 1.455701,4.4828684 1.867809,5.7807564 1.842924,5.8040804 -0.0395,0.03702 -1.824416,0.587796 -2.784663,0.859266 -2.973815,0.840725 -6.092447,1.47579 -8.938632,1.820225 -0.202465,0.0245 -0.368117,0.05642 -0.368117,0.07094 0,0.01451 0.114682,0.126791 0.25485,0.249505 0.796879,0.697649 2.611266,2.566218 3.957376,4.075551 1.344371,1.507385 4.145612,4.832835 4.122798,4.894318 -0.02126,0.05731 -5.778218,4.108308 -5.810255,4.088509 -0.106041,-0.06554 -1.888943,-2.67121 -2.827854,-4.132847 -0.9267,-1.44263 -2.654545,-4.276697 -3.606743,-5.915898 -0.123424,-0.212474 -0.234705,-0.386622 -0.247291,-0.386994 -0.01259,-3.78e-4 -0.163952,0.266915 -0.336368,0.593973 -1.225642,2.324925 -2.676183,4.856662 -3.82342,6.673298 -0.818261,1.295706 -2.1043069,3.152966 -2.1980212,3.174302 -0.020765,0.0047 -1.2950162,-0.899777 -2.8316682,-2.010008 z"
     id="path3786"
     inkscape:connector-curvature="0" />
</svg>
